<svg xmlns="http://www.w3.org/2000/svg" id="Layer_1" data-name="Layer 1" viewBox="0 0 147.65 34"><defs><style>.cls-1{fill:none;}.cls-2{fill:#fff;}</style></defs><title>blood</title><path class="cls-1" d="M28.54,17.25A8.29,8.29,0,0,0,17,18.82a5.37,5.37,0,0,1,.78,2.79,5.35,5.35,0,0,1-6.13,5.3,5.33,5.33,0,0,1-.65-.14L9.91,28.19,6.85,32.26l15.56,0a9,9,0,0,0,7.77-3.42A8.3,8.3,0,0,0,28.54,17.25Z" transform="translate(-0.92 -1)"/><path class="cls-1" d="M51.38,19.3A7.23,7.23,0,0,0,50,19a3.12,3.12,0,0,1-5.48-.17H43.7v9.6h4.16a13.36,13.36,0,0,0,2.27-.19,6.65,6.65,0,0,0,1.92-.62A4.44,4.44,0,0,0,53.77,26a4.25,4.25,0,0,0,.66-2.23A4.7,4.7,0,0,0,53.61,21,4.5,4.5,0,0,0,51.38,19.3Z" transform="translate(-0.92 -1)"/><path class="cls-1" d="M85.34,7.86h-.09a9,9,0,0,0-6.79,3,10.49,10.49,0,0,0-2.85,7.4,10.08,10.08,0,0,0,2.88,7.21,9.22,9.22,0,0,0,6.85,3,9.08,9.08,0,0,0,6.8-3A10.4,10.4,0,0,0,95,18.07a10,10,0,0,0-2.93-7.21A9.2,9.2,0,0,0,85.34,7.86Z" transform="translate(-0.92 -1)"/><path class="cls-1" d="M44.69,15.76a3.12,3.12,0,0,1,5.16-.23A5.09,5.09,0,0,0,51,15a3.41,3.41,0,0,0,1.41-1.38,3.87,3.87,0,0,0,.56-2,3.91,3.91,0,0,0-.53-1.92,3.62,3.62,0,0,0-1.25-1.38,5,5,0,0,0-1.64-.62,11.48,11.48,0,0,0-2.09-.17H43.7v8.25h.93Z" transform="translate(-0.92 -1)"/><path class="cls-1" d="M7.05,21.61a5.35,5.35,0,0,1,7.58-4.87,11.19,11.19,0,0,1,6.28-4.09,8.67,8.67,0,0,0-8.51-8.51A8.68,8.68,0,0,0,3.89,13V30.83l.32-.25,4.14-5.49A5.33,5.33,0,0,1,7.05,21.61Z" transform="translate(-0.92 -1)"/><path class="cls-1" d="M111.63,7.86h-.09a9,9,0,0,0-6.79,3,10.49,10.49,0,0,0-2.85,7.4,10.08,10.08,0,0,0,2.88,7.21,9.22,9.22,0,0,0,6.85,3,9.08,9.08,0,0,0,6.8-3,10.4,10.4,0,0,0,2.87-7.39,10,10,0,0,0-2.93-7.21A9.2,9.2,0,0,0,111.63,7.86Z" transform="translate(-0.92 -1)"/><path class="cls-1" d="M141.44,9.9a11,11,0,0,0-3.75-1.78,18.66,18.66,0,0,0-4.53-.51H129V28.5h3.12a27.82,27.82,0,0,0,4.88-.31,10,10,0,0,0,4.39-2A9.88,9.88,0,0,0,145.37,18,9.87,9.87,0,0,0,141.44,9.9Z" transform="translate(-0.92 -1)"/><polygon class="cls-2" points="62.34 3.63 59.14 3.63 59.14 30.49 73.21 30.49 73.21 27.5 62.34 27.5 62.34 3.63"/><path class="cls-2" d="M85.27,4.86a11.88,11.88,0,0,0-8.92,3.9,13.39,13.39,0,0,0-3.68,9.52,13,13,0,0,0,3.82,9.38,11.9,11.9,0,0,0,8.78,3.83,11.73,11.73,0,0,0,8.88-3.93,13.49,13.49,0,0,0,3.65-9.48,13.05,13.05,0,0,0-3.7-9.37A11.9,11.9,0,0,0,85.27,4.86Zm6.86,20.6a9.08,9.08,0,0,1-6.8,3,9.22,9.22,0,0,1-6.85-3,10.08,10.08,0,0,1-2.88-7.21,10.49,10.49,0,0,1,2.85-7.4,9,9,0,0,1,6.79-3h.09a9.2,9.2,0,0,1,6.73,3A10,10,0,0,1,95,18.07,10.4,10.4,0,0,1,92.14,25.46Z" transform="translate(-0.92 -1)"/><path class="cls-2" d="M111.57,4.86a11.88,11.88,0,0,0-8.92,3.9A13.39,13.39,0,0,0,99,18.28a13,13,0,0,0,3.82,9.38,11.9,11.9,0,0,0,8.78,3.83,11.73,11.73,0,0,0,8.88-3.93,13.49,13.49,0,0,0,3.65-9.48,13,13,0,0,0-3.7-9.37A11.9,11.9,0,0,0,111.57,4.86Zm6.86,20.6a9.08,9.08,0,0,1-6.8,3,9.22,9.22,0,0,1-6.85-3,10.08,10.08,0,0,1-2.88-7.21,10.49,10.49,0,0,1,2.85-7.4,9,9,0,0,1,6.79-3h.09a9.2,9.2,0,0,1,6.73,3,10,10,0,0,1,2.93,7.21A10.4,10.4,0,0,1,118.43,25.46Z" transform="translate(-0.92 -1)"/><path class="cls-2" d="M147.27,12.37a13,13,0,0,0-3.54-4.56,13.58,13.58,0,0,0-5-2.58,21.35,21.35,0,0,0-5.47-.61h-7.39V31.49h7.53a21.75,21.75,0,0,0,5.76-.65,12.25,12.25,0,0,0,5-2.78,13.43,13.43,0,0,0,3.29-4.57,13.74,13.74,0,0,0,1.12-5.5A13,13,0,0,0,147.27,12.37Zm-5.84,13.77a10,10,0,0,1-4.39,2,27.82,27.82,0,0,1-4.88.31H129V7.62h4.12a18.66,18.66,0,0,1,4.53.51,11,11,0,0,1,3.75,1.78A9.87,9.87,0,0,1,145.37,18,9.88,9.88,0,0,1,141.43,26.15Z" transform="translate(-0.92 -1)"/><path class="cls-2" d="M53.67,17A7.28,7.28,0,0,0,55.49,15a6.18,6.18,0,0,0,.79-3.13,6.78,6.78,0,0,0-.88-3.35A7.12,7.12,0,0,0,53.14,6,7.53,7.53,0,0,0,50.28,4.8a19.51,19.51,0,0,0-3.34-.25h-6c-.72-.22-1-.62-1.06-1a.31.31,0,0,1,0,0H37a4.05,4.05,0,0,0,3.44,3.78V28.68A4.05,4.05,0,0,0,37,32.46h2.86s0-.7,1.18-1h5.89a31.38,31.38,0,0,0,3.78-.15A9,9,0,0,0,54.32,30a7.08,7.08,0,0,0,2.49-2.73,7.69,7.69,0,0,0,.89-3.59,7.53,7.53,0,0,0-1.19-4.19A7.07,7.07,0,0,0,53.67,17Zm-10-9.42h3.8a11.48,11.48,0,0,1,2.09.17,5,5,0,0,1,1.64.62,3.62,3.62,0,0,1,1.25,1.38A3.91,3.91,0,0,1,53,11.68a3.87,3.87,0,0,1-.56,2A3.41,3.41,0,0,1,51,15a5.09,5.09,0,0,1-1.19.5,3.12,3.12,0,0,0-5.16.23l-.06.08H43.7ZM53.77,26a4.44,4.44,0,0,1-1.72,1.65,6.65,6.65,0,0,1-1.92.62,13.36,13.36,0,0,1-2.27.19H43.7v-9.6h.86A3.12,3.12,0,0,0,50,19a7.23,7.23,0,0,1,1.34.3A4.5,4.5,0,0,1,53.61,21a4.7,4.7,0,0,1,.83,2.75A4.25,4.25,0,0,1,53.77,26Z" transform="translate(-0.92 -1)"/><path class="cls-2" d="M30.32,14.6a11.2,11.2,0,0,0-6.92-2.26s0-.06,0-.09a11.24,11.24,0,0,0-22.49,0V34.93h0L22,35a12.14,12.14,0,0,0,10.53-4.64A11.24,11.24,0,0,0,30.32,14.6ZM3.89,30.83V13a8.68,8.68,0,0,1,8.52-8.84,8.67,8.67,0,0,1,8.51,8.51,11.19,11.19,0,0,0-6.28,4.09,5.35,5.35,0,0,0-6.29,8.35L4.21,30.58Zm26.29-2a9,9,0,0,1-7.77,3.42l-15.56,0,3.06-4.06L11,26.77a5.33,5.33,0,0,0,.65.14,5.35,5.35,0,0,0,5.93-6.74A5.33,5.33,0,0,0,17,18.82a8.3,8.3,0,0,1,13.2,10.05Z" transform="translate(-0.92 -1)"/></svg>
